<?xml version="1.0" encoding="UTF-8" standalone="no"?>
<!-- Created with Inkscape (http://www.inkscape.org/) -->

<svg
   version="1.1"
   id="svg1"
   width="3009.3333"
   height="2658.6667"
   viewBox="0 0 3009.3333 2658.6667"
   sodipodi:docname="GIU AMA 199-11.eps"
   xmlns:inkscape="http://www.inkscape.org/namespaces/inkscape"
   xmlns:sodipodi="http://sodipodi.sourceforge.net/DTD/sodipodi-0.dtd"
   xmlns="http://www.w3.org/2000/svg"
   xmlns:svg="http://www.w3.org/2000/svg">
  <defs
     id="defs1" />
  <sodipodi:namedview
     id="namedview1"
     pagecolor="#ffffff"
     bordercolor="#000000"
     borderopacity="0.25"
     inkscape:showpageshadow="2"
     inkscape:pageopacity="0.0"
     inkscape:pagecheckerboard="0"
     inkscape:deskcolor="#d1d1d1">
    <inkscape:page
       x="0"
       y="0"
       inkscape:label="1"
       id="page1"
       width="3009.3333"
       height="2658.6667"
       margin="0"
       bleed="0" />
  </sodipodi:namedview>
  <g
     id="g1"
     inkscape:groupmode="layer"
     inkscape:label="1">
    <g
       id="group-R5">
      <path
         id="path2"
         d="m 18747.1,9916.5 c 23.3,84.6 47.6,168.9 64.9,254.9 l 56.8,256.8 20.6,119.7 c 172.1,-84.7 449,-121.8 613.1,-96.8 395.4,60 815.4,500.4 940.7,654 -189.6,58 -783.6,190.3 -1145.6,20.3 -111,-52.1 -254.6,-166.8 -360.6,-290.2 l 13.3,112.3 c 9.8,87.1 21.8,173.9 29.6,261.1 8.3,138 20.8,275.7 25.2,413.7 171.5,-48.1 423.9,-39.5 568,7.2 355.3,115.4 675.7,585.1 767.9,745.7 -183.5,24.6 -751.2,56.5 -1059.1,-155.1 -88.3,-60.7 -194.5,-176.1 -272.5,-297 -0.1,243.1 -14.1,486.1 -39.2,727.7 175.7,-42.7 454.1,-6.5 602.8,60.2 341,152.9 609,654.2 683.5,823.8 -185.1,4.7 -752.9,-24.4 -1036.3,-267.9 -98.1,-84.3 -213.6,-250.7 -275.2,-404.3 -29.6,220.5 -67.3,439.9 -116,656.8 180.3,-14.1 451.5,68.8 588,160.1 310.5,207.9 490.7,747.1 535.7,926.8 -183.4,-26.4 -738.2,-150.4 -976.8,-437.9 -80.1,-96.6 -163.4,-271.9 -200.2,-429.9 -6.1,23.3 -12.3,46.7 -18.8,70 -57.6,212.1 -124.2,421.5 -199.6,627.7 167,13 409.7,141 520.6,251.7 244.6,243.9 311.9,765.2 320.7,936.2 -161.6,-56.6 -642.9,-268 -808,-571.5 -55.8,-102.3 -100.2,-277.4 -105.1,-427.9 -22.7,57.6 -46.2,114.9 -70.3,171.9 -56.3,132.4 -116.6,263 -180.6,391.6 144,49.4 330.9,222.9 403.7,348.5 159,274.1 99.3,751.1 68.1,904.4 -128.9,-88.7 -502.9,-390.7 -578.6,-698.4 -21.4,-86.8 -24.3,-216.6 -7.1,-335.3 -58.5,108.1 -119.6,214.6 -183.4,319.6 61.7,143.4 43.1,421.8 -13.4,567.1 -118.2,304.2 -540.2,562.9 -683.5,636.4 -11.6,-160.7 -9.3,-655.7 189.4,-914.5 91.2,-118.7 305.2,-271.1 458.9,-302.4 75.6,-130.9 147.2,-264.1 214.6,-399.3 -88.1,89.8 -228.7,173.6 -326.5,200.9 -263.1,73.4 -648,-83.3 -769.1,-143.8 101.9,-89.2 434.7,-338 707.8,-333.5 128.8,2.1 347,74.9 440.9,167.6 68.5,-143.5 132.3,-289.2 191,-436.9 26.3,-66.4 51.7,-133.1 76.1,-200.2 -88.5,84.5 -219.6,161.2 -312.4,187.1 -263.1,73.3 -648,-83.3 -769.1,-143.9 101.8,-89.2 434.7,-338 707.8,-333.5 121.2,2 321.3,66.5 422.9,151.2 72.6,-212.2 135.9,-427.5 189.4,-645 7.4,-29.4 14.5,-58.7 21.4,-88.2 -72.1,108.3 -182.2,216.1 -268.7,266.4 -261.8,152.6 -718.8,92.4 -865.8,61.4 84.3,-124.3 371.7,-484.7 666.1,-556.5 134.4,-32.8 377.1,-18 507.6,49.3 46.1,-226.9 79.9,-456.1 104.9,-686 -64.6,114.7 -169.4,232.3 -253.7,289.2 -251.1,169.6 -711.1,139.9 -859.8,118.7 75.9,-129.7 338.8,-508.3 627.7,-599.5 129.9,-40.9 367.5,-42.9 503.4,12.8 21.3,-243.8 31.3,-488.8 26.9,-733.4 -38.3,107.8 -94.4,212.6 -148.5,277.1 -212.1,252.5 -702.3,358.9 -864.2,381.2 40.6,-158.3 202.4,-633.1 477.5,-814.9 122.4,-80.8 366.7,-153.3 525.7,-137.6 -6.8,-133.9 -21.3,-267.4 -31.7,-401.1 -9.1,-85.3 -22.5,-170.1 -33.5,-255.2 l -16.4,-120.3 c -28.3,129.9 -86.2,267.5 -145.4,348.3 -194.7,265.9 -676.8,404.7 -836.9,437.8 30.1,-160.7 160,-645.2 422.4,-844.9 117.2,-89.1 357.6,-178 517.2,-172.1 l -29.5,-155.6 -60.1,-250.1 c -18.3,-83.8 -43.5,-165.7 -67.8,-247.9 l -36.1,-123.3 c -1.5,-5 -3,-10.1 -4.4,-15.1 -12.1,138.56 -58.1,293.6 -111.8,385.1 -167,284.4 -632.5,471.2 -788.4,520.2 13.6,-162.9 93.9,-658.1 334.8,-883.2 107.8,-100.8 338.7,-213.8 498.1,-223.6 l -51.7,-148.5 c -27.6,-81 -63,-159.3 -94.1,-239 l -48.2,-119 c -16.1,-39.6 -35.4,-77.9 -53,-116.9 l -13.6,-29.2 c -7.2,109.3 -29.2,217.2 -60.2,291.5 -133.4,320.4 -592.2,581.7 -747.8,655.1 -9.1,-171.8 3.9,-699.6 222.9,-968.9 87.8,-108 277.1,-240.2 434.1,-290.4 -106.2,-202.6 -220.4,-400.7 -343.2,-593.3 17.8,104.4 21.8,209.9 10.1,286.9 -52,343.1 -434.1,707.6 -567.4,816.5 -50.3,-164.5 -165.3,-680 -17.8,-994.2 62.7,-133.6 229.6,-321.3 376.5,-401.5 -23.8,-32.3 -47.7,-64.5 -71,-97 l -75.8,-103.3 -80.4,-99.6 c -54.3,-66.1 -105.7,-134.2 -162.1,-198.2 l -57.7,-65 c 36.9,108.6 59.3,220.6 60.1,304.9 3.5,377.4 -343.8,835 -468.1,974.9 -82.4,-167.9 -295.1,-701.5 -191.1,-1064.4 44.5,-155.6 193.4,-388.7 338.4,-499.1 l -27.4,-28.5 -88.9,-91.9 c -29.6,-30.8 -61.8,-58.9 -92.5,-88.4 l -186.6,-174.8 -193.9,-166.6 v 0 c 45.5,106.9 76.7,218.8 83.7,303.9 30.7,376.3 -282.7,857.7 -396.5,1006.2 -94.4,-161.6 -345.1,-678.4 -267.5,-1047.9 31.6,-150.5 152,-377.4 281.1,-503.1 -33.3,-26.3 -67,-52 -101.9,-76.1 l -207.3,-149.8 c -70.5,-47.9 -142.6,-93.4 -213.8,-140.3 -35.7,-23.3 -70.8,-47.6 -107.1,-70 l -110,-65.2 c -4.5,-2.6 -9,-5.2 -13.4,-7.7 92.3,137.7 166,304.6 189.2,426.4 79.4,416.7 -213.2,992.1 -322.7,1171.7 -124.7,-169.3 -466.6,-716.8 -424.2,-1138.9 18.2,-181.1 136.5,-468.9 274.8,-619.9 l -151.4,-80.1 c -75.1,-41 -154.1,-73.5 -230.7,-111.5 l -115.7,-55.1 c -38.6,-18.7 -78.7,-33.5 -118,-50.4 l -236.9,-98.7 -211.4,-76.3 c 112.6,117 211.8,262.8 255.9,375.4 154.8,394.9 -26.7,1014.4 -101.2,1211.1 -153.8,-143.4 -590.7,-618.6 -626.8,-1041.2 -15.2,-178.7 45.8,-477.2 151.1,-652.2 -297.2,-92.5 -600.5,-165.5 -907.9,-221.1 130,75.5 252.6,174.3 322.4,260.3 267.4,329.4 282.5,974.7 271.2,1184.7 -190.1,-89.9 -750.6,-410 -913.3,-801.8 -72.7,-175.2 -104.7,-503.9 -44.9,-700.6 -235.2,-31.8 -472.2,-53.9 -710.1,-67.1 -6.2,-0.4 -11.3,-5.3 -11.6,-11.6 -0.4,-6.8 4.9,-12.6 11.6,-12.9 245.7,-12 492.2,-10.2 738.4,4.9 -32.8,-249.4 112.7,-667.3 260.5,-865.4 311.6,-417.4 1075.1,-629.6 1328.5,-679.4 -49.8,253.3 -262.1,1016.8 -679.5,1328.4 -135.2,101 -373,200.9 -589.6,243.6 325.7,35.3 649.7,93.9 968.5,174.8 23.1,-251.3 234.1,-619.6 410.1,-783.4 381.3,-354.7 1170.5,-426.5 1428.7,-430.2 -94.5,240.4 -440.2,953.5 -906.6,1185.2 -138.1,68.5 -360,120.8 -565.6,131.8 385.4,119.9 761.3,272.8 1121.9,456.7 37.5,-222.2 213.2,-522.1 361.4,-659.8 341.2,-317.4 1047.4,-381.7 1278.4,-384.9 -84.5,215 -393.9,853.1 -811.3,1060.3 -139.3,69.2 -374.1,119.9 -575.7,120 82,46 163,93.8 243.2,143.2 193.9,116.7 379.9,246 559.9,383.2 87.5,-208.2 343.3,-463.3 526.7,-560.8 411.6,-218.6 1110.5,-98.6 1334.5,-42 -137.1,185.9 -600.6,722.5 -1057.4,815.2 -148.3,30 -379.6,19.8 -571.5,-28.7 21.4,17.5 42.7,35 63.9,52.7 l 199.2,174 190.6,183.3 c 31.4,31 64.2,60.5 94.3,92.6 l 90.7,96.3 26.9,28.7 c 115.8,-175.9 355.4,-364.6 523.6,-432.6 407.4,-164.7 1051,16.3 1255.6,91.3 -146.8,160.9 -634.1,618.8 -1071.4,660.8 -127.5,12.3 -314.5,-12.4 -478,-64 167.2,197.3 322.2,404.5 469.1,617 138.6,-159.5 409.6,-315.2 588.9,-358.2 427.4,-102.5 1037.1,171.9 1228.2,276.3 -169,137.4 -718.7,518 -1157.5,494.8 -133.3,-7 -324.4,-63.3 -482.5,-143.8 132.8,213.8 255,433.9 367.7,658.7 152.3,-147.6 447.6,-278.3 634.9,-302.1 435.9,-55.6 1012.2,283.3 1190.9,407.9 -182.9,118.2 -770.6,436.9 -1204.3,366.2 -144.2,-23.4 -351,-113.1 -505.3,-223.4 l 52.5,118.2 c 17.3,40.3 36.4,79.9 52.2,120.8 l 47.3,123 c 30.5,82.3 65.2,163.1 92.1,246.6 l 39,118.4 c 156.4,-113.8 445.8,-191.7 619.9,-186.6 399.8,11.5 870.2,397.5 1013.3,534.8 -181.1,80.51 -754.6,284.1 -1134.6,159.4 -126.9,-41.67 -301,-152.2 -424.3,-273.6 2.2,7.9 4.4,15.9 6.5,23.8 l 34.8,126.9"
         style="fill:#242033;fill-opacity:1;fill-rule:nonzero;stroke:none"
         transform="matrix(0.13333333,0,0,-0.13333333,0,2658.6667)" />
      <path
         id="path3"
         d="m 11050.5,4575.8 c -238,13.2 -475,35.4 -710.1,67.1 59.8,196.7 27.8,525.4 -45,700.6 -162.6,391.8 -723.1,711.9 -913.21,801.9 -11.25,-210 3.83,-855.3 271.13,-1184.8 69.88,-86 192.5,-184.8 322.54,-260.2 -307.38,55.5 -610.78,128.5 -908.01,221 105.31,175.1 166.37,473.5 151.13,652.2 -36.05,422.6 -472.96,897.8 -626.79,1041.2 -74.49,-196.7 -255.98,-816.1 -101.25,-1211.1 44.1,-112.5 143.32,-258.5 255.94,-375.4 l -211.45,76.3 -236.91,98.7 c -39.26,16.9 -79.34,31.8 -117.86,50.4 l -115.78,55.1 c -76.56,38 -155.66,70.6 -230.66,111.5 l -151.41,80.1 c 138.36,151 256.53,438.8 274.73,620 42.46,422.1 -299.45,969.6 -424.22,1138.9 -109.45,-179.7 -401.95,-755 -322.62,-1171.8 23.13,-121.7 96.8,-288.6 189.14,-426.4 -4.41,2.6 -8.86,5.2 -13.28,7.7 l -110.04,65.3 c -36.36,22.3 -71.4,46.7 -107.14,69.9 -71.22,46.9 -143.36,92.4 -213.83,140.3 l -207.27,149.8 c -34.84,24.2 -68.55,49.9 -101.91,76.1 129.14,125.7 249.49,352.7 281.05,503.1 77.58,369.5 -173.08,886.3 -267.46,1047.9 -113.83,-148.5 -427.15,-629.9 -396.44,-1006.2 6.95,-85 38.12,-197 83.71,-303.9 v 0 l -193.99,166.6 -186.6,174.8 c -30.74,29.5 -62.89,57.6 -92.46,88.4 l -88.83,92 -27.5,28.4 c 144.96,110.4 293.87,343.5 338.44,499.1 104.02,362.9 -108.67,896.5 -191.17,1064.4 -124.26,-139.9 -471.53,-597.4 -468.05,-974.9 0.78,-84.3 23.24,-196.3 60.12,-304.9 l -57.74,65 c -56.4,64 -107.85,132.2 -162.11,198.2 l -80.43,99.7 -75.74,103.2 c -23.36,32.6 -47.22,64.8 -70.94,97.1 146.84,80.1 313.75,267.9 376.45,401.5 147.46,314.2 32.46,829.6 -17.81,994.1 -133.28,-108.8 -515.35,-473.3 -567.42,-816.5 -11.68,-76.9 -7.62,-182.5 10.19,-286.8 -122.89,192.5 -236.99,390.7 -343.32,593.2 157.03,50.2 346.37,182.4 434.18,290.4 218.98,269.3 231.91,797.1 222.89,968.99 -155.62,-73.39 -614.45,-334.79 -747.89,-655.19 -30.94,-74.2 -52.93,-182.2 -60.2,-291.5 l -13.51,29.2 c -17.58,39.1 -36.91,77.3 -53.05,116.9 l -48.12,119.1 c -31.14,79.7 -66.49,157.9 -94.14,238.9 l -51.76,148.5 c 159.45,9.8 390.35,122.8 498.2,223.7 240.82,225.1 321.13,720.2 334.77,883.1 -155.9,-49 -621.45,-235.8 -788.36,-520.1 -53.79,-91.6 -99.69,-246.64 -111.88,-385.2 -1.44,5 -2.93,10.1 -4.33,15.1 l -36.17,123.31 c -24.18,82.19 -49.5,164.19 -67.78,247.99 l -60.08,250 -29.49,155.6 c 159.65,-5.9 400,83 517.19,172.2 262.38,199.6 392.26,684.1 422.34,844.8 -160.08,-33 -642.15,-171.8 -836.91,-437.8 -59.1,-80.7 -117.03,-218.3 -145.39,-348.2 l -16.33,120.3 c -11.02,85 -24.41,169.9 -33.55,255.1 -10.32,133.7 -24.89,267.2 -31.65,401.1 158.95,-15.7 403.29,56.8 525.67,137.7 275.08,181.7 436.91,656.5 477.58,814.8 -161.92,-22.2 -652.15,-128.7 -864.18,-381.2 -54.18,-64.5 -110.24,-169.3 -148.64,-277 -4.41,244.6 5.59,489.5 27,733.4 135.82,-55.8 373.43,-53.8 503.36,-12.9 288.9,91.2 551.75,469.9 627.65,599.5 -148.67,21.2 -608.67,50.9 -859.76,-118.7 -84.38,-56.9 -189.07,-174.5 -253.68,-289.2 24.97,229.9 58.79,459.2 104.85,686.1 130.47,-67.4 373.24,-82.1 507.69,-49.4 294.3,71.8 581.72,432.2 666.02,556.5 -146.95,31 -603.95,91.2 -865.74,-61.3 -86.53,-50.4 -196.6,-158.1 -268.75,-266.4 6.87,29.4 13.94,58.7 21.33,88.1 53.59,217.5 116.87,432.9 189.53,645.1 101.52,-84.8 301.68,-149.3 422.85,-151.2 273.12,-4.6 605.94,244.3 707.77,333.4 -121.09,60.6 -505.97,217.2 -769.02,143.9 -92.85,-25.9 -223.99,-102.5 -312.42,-187 24.41,67.1 49.76,133.8 76.09,200.1 58.67,147.7 122.42,293.4 190.94,436.9 93.94,-92.8 312.11,-165.5 440.94,-167.6 273.08,-4.5 605.93,244.3 707.81,333.5 -121.14,60.5 -506.02,217.2 -769.06,143.9 -97.93,-27.3 -238.44,-111.2 -326.57,-201 67.39,135.2 139.03,268.4 214.65,399.4 153.71,31.2 367.7,183.7 458.79,302.3 198.79,258.9 201.09,753.8 189.57,914.5 -143.4,-73.4 -565.39,-332.1 -683.59,-636.4 -56.49,-145.3 -75.16,-423.7 -13.48,-567.1 -63.71,-105 -124.84,-211.5 -183.32,-319.6 17.19,118.7 14.3,248.5 -7.07,335.3 -75.74,307.8 -449.73,609.7 -578.59,698.4 -31.25,-153.3 -90.98,-630.2 68.04,-904.4 72.85,-125.6 259.65,-299 403.75,-348.5 -64.06,-128.6 -124.33,-259.1 -180.58,-391.6 -24.18,-56.9 -47.66,-114.3 -70.43,-171.9 -4.89,150.5 -49.3,325.6 -105,428 -165.2,303.4 -646.37,514.8 -808.01,571.4 8.79,-171 76.05,-692.3 320.7,-936.2 110.9,-110.6 353.64,-238.6 520.55,-251.7 -75.39,-206.1 -141.99,-415.6 -199.57,-627.7 -6.41,-23.3 -12.66,-46.7 -18.83,-70.1 -36.8,158.1 -120.08,333.4 -200.19,430 -238.56,287.5 -793.36,411.5 -976.68,437.9 45,-179.7 225.11,-718.9 535.62,-926.7 136.45,-91.4 407.66,-174.2 587.97,-160.2 -48.67,-216.9 -86.41,-436.3 -116.02,-656.7 -61.56,153.5 -177.03,319.9 -275.15,404.2 -283.36,243.5 -851.14,272.7 -1036.29,267.9 74.49,-169.6 342.46,-670.9 683.44,-823.8 148.75,-66.7 427.18,-102.9 602.81,-60.2 -25.04,-241.6 -39.1,-484.6 -39.22,-727.6 -78.01,120.8 -184.22,236.2 -272.5,296.9 -307.93,211.7 -875.55,179.7 -1059.1,155.1 92.26,-160.6 412.58,-630.3 767.97,-745.7 144.06,-46.7 396.52,-55.3 567.97,-7.1 4.37,-138.1 16.91,-275.8 25.19,-413.8 7.77,-87.1 19.88,-174 29.57,-261.1 l 13.32,-112.3 c -106.01,123.4 -249.57,238.1 -360.58,290.3 -362.04,170 -955.98,37.6 -1145.59,-20.3 125.39,-153.6 545.31,-594.1 940.74,-654.1 163.99,-24.9 440.98,12.1 613.05,96.9 l 20.55,-119.8 56.87,-256.7 c 17.23,-86.1 41.56,-170.4 64.84,-254.93 l 34.89,-126.97 c 2.07,-7.9 4.26,-15.9 6.4,-23.8 -123.24,121.5 -297.34,232 -424.22,273.6 -380,124.8 -953.43,-78.85 -1134.6,-159.4 143.12,-137.2 613.47,-523.3 1013.24,-534.9 174.14,-4.9 463.55,72.9 620,186.7 l 38.86,-118.4 c 27,-83.5 61.72,-164.3 92.23,-246.6 l 47.23,-123 c 15.86,-40.9 34.96,-80.5 52.26,-120.8 l 52.39,-118.1 c -154.26,110.2 -361.02,199.9 -505.24,223.4 -433.71,70.6 -1021.4,-248 -1204.33,-366.3 178.71,-124.5 755,-463.5 1190.89,-407.9 187.27,23.9 482.66,154.5 635,302.2 112.62,-224.8 234.77,-444.9 367.62,-658.7 -158.12,80.4 -349.22,136.7 -482.46,143.7 -438.83,23.2 -988.51,-357.4 -1157.5,-494.8 191.13,-104.4 800.82,-378.8 1228.13,-276.3 179.37,43.1 450.39,198.7 588.94,358.2 146.92,-212.4 301.92,-419.7 469.18,-617 -163.63,51.6 -350.47,76.3 -478.01,64 -437.38,-42 -924.61,-499.9 -1071.4,-660.8 204.53,-75 848.16,-256 1255.54,-91.3 168.17,68 407.78,256.7 523.56,432.6 l 26.95,-28.7 90.67,-96.3 c 30.15,-32.1 62.93,-61.6 94.25,-92.6 l 190.67,-183.3 199.18,-174 c 21.21,-17.6 42.5,-35.2 63.86,-52.7 -191.87,48.5 -423.08,58.8 -571.48,28.7 -456.76,-92.6 -920.27,-629.3 -1057.38,-815.2 224.02,-56.5 922.85,-176.6 1334.45,42.1 183.48,97.4 439.3,352.6 526.72,560.7 180,-137.1 366.05,-266.4 560,-383.2 80.08,-49.4 161.17,-97.1 243.16,-143.2 -201.64,-0.1 -436.4,-50.7 -575.74,-119.9 -417.38,-207.3 -726.8,-845.3 -811.29,-1060.4 231.02,3.2 937.19,67.5 1278.44,385 148.12,137.6 323.91,437.5 361.44,659.7 360.51,-183.9 736.45,-336.8 1121.84,-456.7 -205.55,-11 -427.5,-63.3 -565.55,-131.8 -466.44,-231.7 -812.22,-944.8 -906.68,-1185.1 258.21,3.5 1047.43,75.4 1428.79,430.1 175.98,163.8 386.92,532.2 410,783.4 318.87,-80.9 642.82,-139.5 968.6,-174.8 -216.6,-42.7 -454.38,-142.6 -589.69,-243.6 -417.38,-311.6 -629.61,-1075 -679.41,-1328.4 253.32,49.8 1016.87,262 1328.47,679.5 147.9,198.1 293.2,615.9 260.5,865.3 246.1,-15.1 492.7,-16.9 738.4,-4.9 6.1,0.4 11.3,5.4 11.6,11.7 0.3,6.7 -4.9,12.4 -11.6,12.8"
         style="fill:#242033;fill-opacity:1;fill-rule:nonzero;stroke:none"
         transform="matrix(0.13333333,0,0,-0.13333333,0,2658.6667)" />
    </g>
  </g>
</svg>
