<?xml version="1.0" encoding="UTF-8"?>
<svg version="1.1" xmlns="http://www.w3.org/2000/svg" width="3009" height="2658">
<path d="M0 0 C413.82 0 827.64 0 1254 0 C1254 413.82 1254 827.64 1254 1254 C840.18 1254 426.36 1254 0 1254 C0 840.18 0 426.36 0 0 Z " fill="#FDFDFD" transform="translate(0,0)"/>
<path d="M0 0 C-1.48352682 5.4225463 -4.06026886 9.61354548 -7.125 14.25 C-7.6185498 15.00289307 -8.11209961 15.75578613 -8.62060547 16.53149414 C-12.44011167 22.29298556 -16.47541455 27.76816473 -21 33 C-21.69480469 33.81597656 -22.38960938 34.63195312 -23.10546875 35.47265625 C-40.82221422 55.76068159 -63.09546867 68.71127966 -90 72 C-90.91910156 71.99742187 -91.83820313 71.99484375 -92.78515625 71.9921875 C-101.19705746 72.01639441 -105.65621369 76.16276075 -111.54443359 81.66992188 C-113.7081523 83.64710059 -116.01125169 85.43627541 -118.3125 87.25 C-129.3288882 96.27339489 -139.41996196 106.33384885 -149.5 116.375 C-150.75478149 117.62277222 -150.75478149 117.62277222 -152.03491211 118.89575195 C-188.80113977 155.75786906 -222.35138396 205.39539127 -238.9296875 254.8984375 C-239.96697027 257.90428612 -241.1621622 260.77587974 -242.4375 263.6875 C-245.92625377 271.90472192 -248.4480873 280.45527911 -251 289 C-251.30719971 289.99765381 -251.61439941 290.99530762 -251.9309082 292.02319336 C-254.70954707 301.31543445 -256.71385047 310.6837019 -258.55493164 320.19995117 C-259.05482671 322.77300415 -259.57071282 325.34248225 -260.08789062 327.91210938 C-264.65289354 350.98872534 -266.52673654 373.61055992 -266.375 397.125 C-266.3713443 398.36814972 -266.3676886 399.61129944 -266.36392212 400.89212036 C-266.29893952 419.76085628 -265.69119721 438.30579081 -263 457 C-262.83177734 458.24595947 -262.83177734 458.24595947 -262.66015625 459.51708984 C-261.94709954 464.71646169 -261.01794247 469.85259448 -260 475 C-259.78972168 476.09054687 -259.57944336 477.18109375 -259.36279297 478.3046875 C-255.49407722 498.33645188 -255.49407722 498.33645188 -249.72460938 517.87890625 C-248.87835911 520.35607009 -248.08740693 522.84825186 -247.296875 525.34375 C-228.78219777 583.26368707 -199.04913191 637.07295436 -158.40039062 682.43652344 C-157.10753901 683.87993727 -155.8266449 685.33403749 -154.546875 686.7890625 C-149.25845439 692.76164941 -143.68165432 698.40300609 -138 704 C-135.40584935 706.58171862 -132.8282594 709.17616944 -130.2734375 711.796875 C-124.71373089 717.48087428 -119.05879786 722.78837192 -112.8203125 727.73828125 C-110.33434569 729.73187513 -107.92094902 731.78886023 -105.51782227 733.88085938 C-97.1021144 741.17195928 -88.12798612 747.6348909 -79 754 C-78.06099854 754.65500488 -78.06099854 754.65500488 -77.10302734 755.32324219 C-56.97995934 769.25417206 -35.63873995 782.57420493 -13 792 C-11.68631817 792.60159261 -10.37365977 793.20543026 -9.0625 793.8125 C-2.82359876 796.59963801 3.60664391 798.90034947 10.01391602 801.265625 C14.58304303 802.95510675 19.14213768 804.66704389 23.68359375 806.4296875 C37.12655302 811.63209316 50.62487894 815.79678523 64.828125 818.32421875 C67.75752199 818.94833905 70.23267507 819.88942881 73 821 C75.39913106 821.40695072 75.39913106 821.40695072 77.75 821.5625 C81.8990991 821.8990991 81.8990991 821.8990991 83 823 C87.75722951 824.00972661 92.57272223 824.7359474 97.375 825.5 C98.09029877 825.61460571 98.80559753 825.72921143 99.54257202 825.84729004 C112.72379476 827.92749975 125.73236035 828.69985465 139.07666016 828.90429688 C143.74190835 829.0570259 148.3573507 829.52540106 153 830 C153 833.63 153 837.26 153 841 C127.28947215 841.89169461 101.610193 838.94300552 76.47509766 833.52539062 C73.86748254 832.97187043 71.25361161 832.46085936 68.63671875 831.953125 C40.34415031 826.31488032 13.08737395 816.57513203 -13.25 804.9375 C-13.99475586 804.60903076 -14.73951172 804.28056152 -15.50683594 803.94213867 C-19.76972026 802.0452594 -23.96589951 800.05247615 -28.12841797 797.94458008 C-29.82529151 797.08817469 -31.53504754 796.25741383 -33.24609375 795.4296875 C-65.48340629 779.72534186 -96.75929188 758.42253172 -123 734 C-124.3285558 732.82789575 -125.6617635 731.66103917 -127 730.5 C-127.65355469 729.92765625 -128.30710937 729.3553125 -128.98046875 728.765625 C-130.33273672 727.58337138 -131.68956634 726.40631622 -133.05078125 725.234375 C-139.16442608 719.87041719 -144.9287288 714.17806295 -150.6875 708.4375 C-151.49550049 707.6340918 -152.30350098 706.83068359 -153.13598633 706.00292969 C-157.96379902 701.16271382 -162.55781039 696.19456789 -167 691 C-167.94938203 689.91696942 -168.89985044 688.83488989 -169.8515625 687.75390625 C-177.65280819 678.81037008 -184.91465334 669.51772374 -192 660 C-192.54833496 659.2673291 -193.09666992 658.5346582 -193.66162109 657.77978516 C-201.78223536 646.89267675 -209.13941796 635.71865489 -216 624 C-216.4832373 623.18160645 -216.96647461 622.36321289 -217.46435547 621.52001953 C-249.55733643 567.03610099 -269.492227 507.84846828 -276.7565918 445.07058716 C-276.92338147 443.65176659 -277.0953553 442.23354859 -277.27172852 440.81588745 C-278.85499311 428.07428705 -279.32301745 415.52109771 -279.25 402.6875 C-279.24756287 401.74699799 -279.24512573 400.80649597 -279.24261475 399.8374939 C-279.20321753 386.8652017 -278.93821555 374.00099734 -277.2734375 361.11865234 C-277.0099677 359.07723188 -276.78107992 357.03493812 -276.5625 354.98828125 C-276.10872762 350.98130911 -275.57109066 346.99141748 -275 343 C-274.88994629 342.19594727 -274.77989258 341.39189453 -274.66650391 340.56347656 C-266.47197139 281.89981384 -244.16543481 225.5789004 -212 176 C-211.61650391 175.40203613 -211.23300781 174.80407227 -210.83789062 174.18798828 C-201.54819708 159.7175041 -191.00098413 146.19582768 -180 133 C-179.49855469 132.39800781 -178.99710937 131.79601562 -178.48046875 131.17578125 C-164.82254273 114.85113617 -150.30284307 98.73178539 -134 85 C-133.01257813 84.14664063 -132.02515625 83.29328125 -131.0078125 82.4140625 C-129.90166065 81.4628214 -128.79487298 80.51231926 -127.6875 79.5625 C-127.13263916 79.08474121 -126.57777832 78.60698242 -126.00610352 78.11474609 C-122.49141251 75.13218206 -118.8749237 72.57257203 -115 70.0625 C-109.94346637 66.46835955 -108.37126957 63.11656979 -106.36328125 57.35546875 C-97.86986509 36.45047023 -79.11953837 21.04765012 -59 12 C-41.03322118 4.49209466 -19.59234077 -1.01925472 0 0 Z " fill="#090909" transform="translate(449,152)"/>
<path d="M0 0 C30.48357113 0.49311659 64.0677333 9.14573805 87 30 C87.69351563 30.60070312 88.38703125 31.20140625 89.1015625 31.8203125 C97.02886335 39.11595591 103.84217159 48.85424224 107.125 59.125 C110.1755419 67.14878451 117.23988808 71.38907908 123.87451172 76.37207031 C127.16987453 78.89601693 130.30955332 81.58545385 133.4375 84.3125 C134.04424561 84.84093506 134.65099121 85.36937012 135.27612305 85.91381836 C147.50053508 96.64639433 159.24408036 107.78917336 170 120 C170.48243164 120.54301758 170.96486328 121.08603516 171.46191406 121.64550781 C179.79896919 131.05831199 187.50305564 140.90941019 195 151 C195.54833496 151.73798828 196.09666992 152.47597656 196.66162109 153.23632812 C212.90222678 175.19572565 227.30836212 198.28673782 239 223 C239.57548584 224.2068042 239.57548584 224.2068042 240.16259766 225.43798828 C251.30855451 248.93594488 260.4792469 273.37301146 267 298.5625 C267.16953186 299.21565186 267.33906372 299.86880371 267.51373291 300.54174805 C271.29265262 315.21549966 273.83670273 330.00451252 276 345 C276.26731934 346.73443359 276.26731934 346.73443359 276.54003906 348.50390625 C289.50656715 437.04881629 268.25735128 530.06728825 192.28613281 660.44116211 C187.05260794 667.45551609 181.6409695 674.30780158 176 681 C175.53062012 681.55961426 175.06124023 682.11922852 174.57763672 682.69580078 C169.19421121 689.10365184 163.80033131 695.38884727 157.78515625 701.21875 C155.96608032 703.03384546 154.29483496 704.92233917 152.625 706.875 C146.63893055 713.81556799 140.08389092 720.20605405 133.12109375 726.16015625 C130.57458942 728.36900254 128.1039984 730.65320554 125.625 732.9375 C120.58421115 737.52821842 115.38399497 741.82042464 110 746 C109.03707031 746.75796875 108.07414062 747.5159375 107.08203125 748.296875 C85.55247244 765.09260535 62.72602157 779.33653638 38.80078125 792.46240234 C36.37251513 793.79549335 33.95098633 795.13980574 31.53125 796.48828125 C24.81047537 800.19675817 18.06920924 803.2925717 10.8515625 805.91796875 C8.42981868 806.83690442 6.2183272 807.84699744 3.9375 809.0625 C-0.24836642 811.25720375 -4.64623825 812.62754292 -9.13671875 814.0703125 C-11.39402398 814.8032438 -13.6012484 815.57997759 -15.8125 816.4375 C-37.49357564 824.6447088 -60.48215824 831.32505593 -83.375 835 C-84.40012695 835.16733643 -85.42525391 835.33467285 -86.48144531 835.50708008 C-96.96225478 837.19465442 -107.46477507 838.69544195 -118 840 C-119.06605469 840.1340625 -120.13210938 840.268125 -121.23046875 840.40625 C-126.09283955 840.91143138 -130.94595311 841.04088387 -135.83203125 841.0546875 C-137.4109314 841.05915894 -137.4109314 841.05915894 -139.02172852 841.0637207 C-143.68139399 841.06195875 -148.34047007 841.03553879 -153 841 C-153 837.7 -153 834.4 -153 831 C-151.46859375 830.91363281 -149.9371875 830.82726562 -148.359375 830.73828125 C-134.524043 829.87667328 -120.85208856 828.46615153 -107.125 826.5625 C-106.36731323 826.45926422 -105.60962646 826.35602844 -104.82897949 826.24966431 C-96.35101962 825.08634041 -88.05083357 823.67320577 -79.7265625 821.6496582 C-76.48415047 820.8770885 -73.22876449 820.33423799 -69.9375 819.8125 C-51.90196031 816.627612 -34.19505213 810.68510659 -17.01928711 804.4387207 C-16.1350708 804.11863037 -15.25085449 803.79854004 -14.33984375 803.46875 C-13.57019287 803.18451172 -12.80054199 802.90027344 -12.00756836 802.60742188 C-10 802 -10 802 -7 802 C-7 801.34 -7 800.68 -7 800 C-6.31035156 799.75765625 -5.62070312 799.5153125 -4.91015625 799.265625 C6.85906932 795.06809599 17.8805816 789.66304952 29 784 C29.74072754 783.62601074 30.48145508 783.25202148 31.24462891 782.86669922 C64.1112397 766.225288 95.0113102 744.89436001 121.98046875 719.7734375 C124.2305385 717.68324413 126.53414968 715.66630536 128.859375 713.66015625 C133.10180469 709.96242737 137.09582334 706.0522611 141.0625 702.0625 C141.73087891 701.39798828 142.39925781 700.73347656 143.08789062 700.04882812 C147.59756654 695.53038705 151.83910264 690.83925821 156 686 C157.04559801 684.80877374 158.09244171 683.61863955 159.140625 682.4296875 C201.21282058 634.44359531 230.63202087 579.109357 249.90332031 518.44482422 C250.78106365 515.68770969 251.67741295 512.93843627 252.5859375 510.19140625 C259.32567704 489.2709283 262.55887655 467.08369264 264.70629883 445.27294922 C265 443 265 443 265.49951172 441.17456055 C266.24182569 437.94929687 266.37119454 434.69689657 266.55078125 431.40234375 C266.59262039 430.65524643 266.63445953 429.90814911 266.67756653 429.13841248 C267.11993008 420.61475041 267.19823721 412.09608993 267.1875 403.5625 C267.18722809 402.73917175 267.18695618 401.91584351 267.18667603 401.06756592 C267.16492153 386.63406586 266.52172949 372.35998252 265 358 C264.90348145 357.03094727 264.80696289 356.06189453 264.70751953 355.06347656 C262.00152514 328.39454662 256.25608522 302.48276427 248 277 C247.71012207 276.09604492 247.42024414 275.19208984 247.12158203 274.26074219 C242.64595405 260.4497851 236.97424162 247.22090682 231 234 C230.63680664 233.18176758 230.27361328 232.36353516 229.89941406 231.52050781 C223.62636462 217.41345441 215.99574286 204.19420653 208 191 C207.46938965 190.12214844 206.9387793 189.24429688 206.39208984 188.33984375 C199.93963187 177.72722143 193.01684398 167.63153983 185.40527344 157.81835938 C184.07122473 156.09216153 182.75524825 154.35391083 181.4453125 152.609375 C165.26320586 131.13504752 146.61322593 110.30307286 126 93 C125.02546875 92.15953125 124.0509375 91.3190625 123.046875 90.453125 C120.82889535 88.54077379 118.58967573 86.65828751 116.33203125 84.79296875 C114.20862066 83.03815936 112.20985614 81.25614072 110.19921875 79.36328125 C102.45825765 72.56393635 95.94034571 72.03739393 86.09375 71.42578125 C67.93095706 70.18461148 50.38501835 60.98557293 37 49 C36.12214844 48.26394531 35.24429688 47.52789062 34.33984375 46.76953125 C19.98104876 34.38986694 7.73679216 17.30598246 0 0 Z " fill="#080808" transform="translate(805,152)"/>
<path d="M0 0 C0 5.28 0 10.56 0 16 C-2.124375 16.99 -4.24875 17.98 -6.4375 19 C-20.94652746 26.14246845 -29.18581332 38.54162097 -38.625 51.1875 C-59.09488345 78.54106107 -80.37092463 92.79154715 -112.5 103.875 C-113.19817841 104.11628632 -113.89635681 104.35757263 -114.61569214 104.60617065 C-122.00245753 107.1446015 -129.31403401 109.52062159 -137 111 C-136.21263517 101.41645211 -136.21263517 101.41645211 -134.9375 96.75 C-134.04287162 93.17148648 -133.57624187 90.64743228 -134 87 C-135.91092347 85.02376064 -135.91092347 85.02376064 -138.59375 83.640625 C-139.54121094 83.08246094 -140.48867188 82.52429687 -141.46484375 81.94921875 C-142.96724609 81.10810547 -142.96724609 81.10810547 -144.5 80.25 C-146.47222733 79.11539818 -148.44118258 77.97508272 -150.40625 76.828125 C-151.28603516 76.3321582 -152.16582031 75.83619141 -153.07226562 75.32519531 C-153.70841797 74.88788086 -154.34457031 74.45056641 -155 74 C-155 73.34 -155 72.68 -155 72 C-154.2565332 71.84966309 -153.51306641 71.69932617 -152.74707031 71.54443359 C-120.29694677 64.92940841 -88.49244787 57.68941679 -64 34 C-61.36384545 31.63120392 -58.67954909 29.31947007 -56 27 C-55.04480469 26.154375 -54.08960938 25.30875 -53.10546875 24.4375 C-42.14575294 14.83508726 -30.84548702 6.94036868 -17 2 C-15.80375 1.566875 -14.6075 1.13375 -13.375 0.6875 C-8.8346615 -0.23738377 -4.63070662 -0.12686867 0 0 Z " fill="#040404" transform="translate(602,995)"/>
<path d="M0 0 C17.86720612 -1.21133601 34.72935638 8.90864765 48 20 C51.01736898 22.6865346 53.98561936 25.41818501 56.94140625 28.171875 C85.21578431 54.43898112 117.44076927 65.36582351 155 72 C155 72.66 155 73.32 155 74 C153.28759766 75.31274414 153.28759766 75.31274414 150.9140625 76.78515625 C150.06585937 77.31560547 149.21765625 77.84605469 148.34375 78.39257812 C147.4465625 78.94365234 146.549375 79.49472656 145.625 80.0625 C144.73554687 80.61744141 143.84609375 81.17238281 142.9296875 81.74414062 C136.444342 85.777829 136.444342 85.777829 134 87 C134.44539029 91.67659807 134.97882164 96.17703105 136.0625 100.75 C136.80894095 103.90716878 137.21061456 106.73547425 137 110 C130.28343551 109.39519087 124.1779616 107.75251472 117.75 105.75 C116.72511475 105.43281006 115.70022949 105.11562012 114.64428711 104.78881836 C107.57485826 102.56764036 100.69980054 100.1864905 94 97 C93.38608398 96.71012207 92.77216797 96.42024414 92.13964844 96.12158203 C69.80619372 85.50483352 53.71019598 71.69419261 39.125 51.6875 C28.19495079 36.71198896 17.95584536 22.88307405 0 16 C0 10.72 0 5.44 0 0 Z " fill="#040404" transform="translate(652,995)"/>
<path d="M0 0 C-0.64414801 3.00602404 -1.31596249 6.00288765 -2 9 C-2.23332031 10.05960938 -2.46664062 11.11921875 -2.70703125 12.2109375 C-10.09598266 43.8585924 -21.52638396 78.60849373 -50.125 97.25 C-54.64285714 100 -54.64285714 100 -57 100 C-57 100.66 -57 101.32 -57 102 C-60.30839237 103.3023599 -63.62238308 104.58986413 -66.9375 105.875 C-68.32678711 106.42220703 -68.32678711 106.42220703 -69.74414062 106.98046875 C-75.45760458 109.18566536 -80.98721975 110.82827872 -87 112 C-88.27976278 86.0255555 -80.80467535 63.01250926 -64 43 C-63.39542969 42.26136719 -62.79085937 41.52273438 -62.16796875 40.76171875 C-57.03798991 34.71231396 -51.28811069 29.8119135 -45 25 C-43.99582031 24.21882812 -42.99164062 23.43765625 -41.95703125 22.6328125 C-12.06043226 0 -12.06043226 0 0 0 Z " fill="#040404" transform="translate(831,846)"/>
<path d="M0 0 C6.86623523 2.58619712 13.33581209 5.56585769 19.75 9.125 C21.05142944 9.84623047 21.05142944 9.84623047 22.37915039 10.58203125 C29.9981485 14.87656777 37.12791348 19.59533647 44 25 C44.55768066 25.43812012 45.11536133 25.87624023 45.68994141 26.32763672 C62.61348467 39.78987666 75.0354072 55.42543211 82 76 C82.34804688 76.79148437 82.69609375 77.58296875 83.0546875 78.3984375 C86.68760188 88.39645806 86.29508017 100.50826067 86 111 C79.69918732 111.4846779 75.09003127 109.8540873 69.3125 107.4375 C68.42618896 107.07108398 67.53987793 106.70466797 66.62670898 106.32714844 C43.02033902 96.36811007 26.03565674 78.9800251 15.88818359 55.41845703 C13.41905231 49.34084945 11.18619489 43.18392107 9 37 C8.58878906 35.8759375 8.17757813 34.751875 7.75390625 33.59375 C5.74275551 27.89679382 4.21854743 22.11993134 2.8125 16.25 C2.56161621 15.20344238 2.56161621 15.20344238 2.30566406 14.13574219 C1.2248401 9.44028635 0.53151583 4.78901127 0 0 Z " fill="#040403" transform="translate(424,846)"/>
<path d="M0 0 C1.60447646 1.40825432 3.11127868 2.88054849 4.60302734 4.40698242 C2.71073613 9.54162058 -1.26181654 10.71712464 -5.95556641 12.95385742 C-11.31583092 15.21721542 -16.81061551 16.81088038 -22.39697266 18.40698242 C-23.76825317 18.92035156 -23.76825317 18.92035156 -25.16723633 19.4440918 C-28.63360039 20.47752893 -31.4700134 20.66545629 -35.08056641 20.67260742 C-36.96678711 20.67647461 -36.96678711 20.67647461 -38.89111328 20.68041992 C-40.19242187 20.67268555 -41.49373047 20.66495117 -42.83447266 20.65698242 C-44.78063477 20.66858398 -44.78063477 20.66858398 -46.76611328 20.68041992 C-48.65426758 20.67655273 -48.65426758 20.67655273 -50.58056641 20.67260742 C-52.29070923 20.66922363 -52.29070923 20.66922363 -54.03540039 20.66577148 C-57.70941135 20.38292948 -60.88691791 19.5021534 -64.39697266 18.40698242 C-66.08082874 18.13351407 -67.76847236 17.88209181 -69.45947266 17.65698242 C-75.41807469 16.62568592 -80.58277388 14.38004738 -86.07275391 11.89916992 C-88.74668182 10.69888735 -91.39455895 9.65183075 -94.14697266 8.65698242 C-108.29723324 3.02007534 -121.0827747 -5.7684016 -133.39697266 -14.59301758 C-129.95560446 -17.62177276 -126.22679181 -18.80739355 -121.89697266 -20.03051758 C-121.1615625 -20.24224609 -120.42615234 -20.45397461 -119.66845703 -20.67211914 C-75.11524102 -33.1060083 -36.1198133 -30.19144158 0 0 Z " fill="#050505" transform="translate(373.39697265625,934.593017578125)"/>
<path d="M0 0 C-3.4937668 3.9213893 -7.54149941 6.39018531 -12 9.0625 C-12.79108154 9.5378418 -13.58216309 10.01318359 -14.3972168 10.50292969 C-16.92586349 12.01163681 -19.46252483 13.50619898 -22 15 C-22.81162598 15.4851709 -23.62325195 15.9703418 -24.45947266 16.47021484 C-36.84574643 23.83442213 -49.18042159 28.95862875 -63 33 C-64.16917969 33.36996094 -65.33835937 33.73992188 -66.54296875 34.12109375 C-87.71596689 39.50405938 -111.60424269 36.83032313 -131 27 C-133.48380285 25.45132565 -135.70476124 23.82575811 -138 22 C-136.43928722 17.91740377 -133.52578926 15.53151558 -130.25 12.8125 C-129.67290283 12.33200195 -129.09580566 11.85150391 -128.5012207 11.35644531 C-91.05787212 -19.21243984 -43.29721828 -16.63145388 0 0 Z " fill="#050504" transform="translate(1014,919)"/>
<path d="M0 0 C-2.94199052 2.44195488 -5.49092553 3.66513343 -9.15625 4.71875 C-10.1673584 5.00999756 -11.1784668 5.30124512 -12.22021484 5.60131836 C-30.66428071 10.65510773 -47.65913798 13.25071916 -66.75 13.4375 C-67.85344757 13.45609573 -67.85344757 13.45609573 -68.97918701 13.47506714 C-82.91900957 13.66983784 -96.13257153 11.58973926 -108.75 5.3125 C-109.45261963 4.9714624 -110.15523926 4.6304248 -110.87915039 4.27905273 C-117.54200098 0.92976763 -123.29206567 -3.18902678 -129 -8 C-129.96421875 -8.80179688 -130.9284375 -9.60359375 -131.921875 -10.4296875 C-139.10190892 -16.61587492 -139.10190892 -16.61587492 -140 -21 C-87.92734297 -42.64836029 -46.02381512 -30.93853603 0 0 Z " fill="#040404" transform="translate(899,1007)"/>
<path d="M0 0 C0.8559375 0.43699219 1.711875 0.87398437 2.59375 1.32421875 C3.2228125 1.65035156 3.851875 1.97648438 4.5 2.3125 C-0.94538027 14.17931926 -15.48794618 22.16258647 -26.8125 27.6875 C-27.73264893 28.15144165 -27.73264893 28.15144165 -28.67138672 28.62475586 C-41.66635428 34.63864517 -55.57402966 36.01684769 -69.6875 35.8125 C-70.82461929 35.80419159 -70.82461929 35.80419159 -71.98471069 35.79571533 C-84.83135973 35.68627611 -97.01613765 34.47476821 -109.5 31.3125 C-110.48436035 31.07160645 -111.4687207 30.83071289 -112.48291016 30.58251953 C-117.36160686 29.3764891 -122.22880159 28.12533869 -127.0703125 26.77734375 C-127.83102051 26.567146 -128.59172852 26.35694824 -129.37548828 26.14038086 C-131.77424086 25.20563367 -133.51433003 23.93552777 -135.5 22.3125 C-93.6063398 -4.72465497 -48.07141002 -24.70336348 0 0 Z " fill="#040404" transform="translate(490.5,984.6875)"/>
<path d="M0 0 C35.30178566 6.39121028 72.03118137 17.02389419 93.90234375 47.70703125 C100.23240192 57.64416168 108 70.89337652 108 83 C80.69440253 83.64587476 58.90116547 78.50908512 38.41381836 59.390625 C24.25239275 45.74194463 14.35204325 29.19708476 5.10644531 12.01171875 C4.0174588 10.03174328 2.8690909 8.09633489 1.7109375 6.15625 C0 3 0 3 0 0 Z " fill="#050504" transform="translate(98,665)"/>
<path d="M0 0 C-4.09108421 19.76134745 -21.73684165 40.23770915 -35 55 C-35.62519531 55.69738281 -36.25039062 56.39476562 -36.89453125 57.11328125 C-47.19589 67.99363908 -62.5125202 76.22290705 -77 80 C-78.155 80.350625 -79.31 80.70125 -80.5 81.0625 C-85.96148119 82.41900426 -91.40706327 82.21599897 -97 82.125 C-98.59134766 82.11146484 -98.59134766 82.11146484 -100.21484375 82.09765625 C-102.81013638 82.07427524 -105.40494465 82.04150556 -108 82 C-104.7706283 66.53491605 -98.59881319 53.48710472 -89 41 C-88.45988281 40.27554688 -87.91976563 39.55109375 -87.36328125 38.8046875 C-68.88858683 15.81602492 -28.97210689 -0.68981207 0 0 Z " fill="#040404" transform="translate(1156,666)"/>
<path d="M0 0 C2.06054251 0.01005222 4.12108979 0.01917409 6.18164062 0.02734375 C11.18371318 0.04917419 16.18555287 0.08357997 21.1875 0.125 C21.1875 2.125 21.1875 2.125 19.1875 4.25 C18.1884457 5.20931918 17.18830085 6.16750303 16.1875 7.125 C14.85147579 8.45563702 13.51831048 9.78914857 12.1875 11.125 C9.1875 14.125 6.1875 17.125 3.1875 20.125 C2.27291016 21.09179688 2.27291016 21.09179688 1.33984375 22.078125 C-17.82555567 41.97396614 -44.26161962 57.85995442 -72.38964844 58.41625977 C-83.5288861 58.50082466 -95.60451861 58.22899069 -105.8125 53.125 C-101.51231557 37.63508833 -85.008085 23.14136898 -71.5078125 15.15625 C-60.21767837 8.80818955 -48.53288893 4.56387681 -35.8125 2.125 C-34.53572388 1.85574707 -34.53572388 1.85574707 -33.2331543 1.58105469 C-22.21781106 -0.46353149 -11.16016679 -0.0952248 0 0 Z " fill="#030303" transform="translate(1081.8125,799.875)"/>
<path d="M0 0 C5.24290647 -0.05026756 10.48566597 -0.08611954 15.72875977 -0.10986328 C17.50417531 -0.11978449 19.27957515 -0.13332571 21.05493164 -0.15087891 C54.26046333 -0.47043398 85.65092774 6.11883815 110.49902344 29.51708984 C114.07489666 33.0499223 117.10670879 36.90117079 120 41 C120.598125 41.83015625 121.19625 42.6603125 121.8125 43.515625 C126 49.52546296 126 49.52546296 126 53 C124.00283825 53.65455759 122.00209613 54.2981943 120 54.9375 C118.88625 55.29714844 117.7725 55.65679688 116.625 56.02734375 C93.4846511 62.23633823 69.16748116 56.75560427 48.7265625 45.22265625 C37.27982545 38.52103609 27.46136802 30.24218575 18 21 C17.42266113 20.43780762 16.84532227 19.87561523 16.25048828 19.29638672 C14.4936957 17.57915936 12.74457183 15.85463756 11 14.125 C10.47204834 13.60188232 9.94409668 13.07876465 9.40014648 12.53979492 C0 3.09751556 0 3.09751556 0 0 Z " fill="#030303" transform="translate(152,800)"/>
<path d="M0 0 C2 0 2 0 4.0625 1.9375 C4.49949219 2.39382813 4.93648438 2.85015625 5.38671875 3.3203125 C7.34401379 5.35817416 9.36165454 7.33002355 11.375 9.3125 C15.44831137 13.39252193 19.27320458 17.60409309 23 22 C23.77214844 22.88300781 24.54429687 23.76601563 25.33984375 24.67578125 C37.31414713 38.60582602 48.14228855 55.1167437 53 73 C53.17700439 73.61601074 53.35400879 74.23202148 53.53637695 74.86669922 C55.35498588 81.93916315 55.33131786 88.92004263 55.3125 96.1875 C55.32861328 97.41275391 55.34472656 98.63800781 55.36132812 99.90039062 C55.36620467 109.1511895 55.2809924 120.0785114 50 128 C43.76988659 127.06770274 38.79829588 121.80345325 34 118 C33.19691406 117.36707031 32.39382813 116.73414063 31.56640625 116.08203125 C17.56428281 104.37615622 9.24804389 88.58916382 3.625 71.5 C3.26680176 70.43531494 3.26680176 70.43531494 2.90136719 69.34912109 C-1.07670277 56.42183296 -1.31073186 42.88328694 -1.20581055 29.47924805 C-1.18733026 27.04009691 -1.18530342 24.60132397 -1.18554688 22.16210938 C-1.16825562 14.71978496 -1.06899318 7.38032889 0 0 Z " fill="#040404" transform="translate(344,782)"/>
<path d="M0 0 C-1.24045822 8.7921302 -2.85717074 17.4168777 -4.875 26.0625 C-5.11863281 27.14337891 -5.36226562 28.22425781 -5.61328125 29.33789062 C-10.38236006 49.95859669 -19.04702065 67.93120002 -33 84 C-33.5053125 84.60070312 -34.010625 85.20140625 -34.53125 85.8203125 C-46.04078761 98.4455706 -62.57394989 105.6578426 -79 109 C-80.11827864 82.19916201 -75.42054088 59.25148178 -56.87109375 38.984375 C-43.71449485 25.13343738 -28.51977044 14.4751327 -12 5 C-11.06414062 4.44957031 -10.12828125 3.89914062 -9.1640625 3.33203125 C-3.3960084 0 -3.3960084 0 0 0 Z " fill="#040404" transform="translate(1169,517)"/>
<path d="M0 0 C0.33 0 0.66 0 1 0 C1.91533439 9.60994672 2.21652254 19.15229677 2.24023438 28.80004883 C2.24991693 31.16719034 2.28105546 33.53345196 2.3125 35.90039062 C2.40868849 49.69333696 1.24503575 63.8243768 -3.75 76.8125 C-4.00821533 77.50569336 -4.26643066 78.19888672 -4.5324707 78.91308594 C-12.24133544 98.98060685 -27.05380741 117.32509298 -46 128 C-46.99 128 -47.98 128 -49 128 C-57.98439811 104.31385954 -55.16860093 78.94018177 -45.0390625 56.1953125 C-37.98030346 41.20848912 -27.67575609 27.08280591 -15.6953125 15.66015625 C-13.77932302 13.84535433 -13.77932302 13.84535433 -11.5 10.9375 C-8.32571153 7.20771104 -4.72654842 4.16060065 -1 1 C-0.67 0.67 -0.34 0.34 0 0 Z " fill="#030303" transform="translate(909,782)"/>
<path d="M0 0 C18.73044775 6.82455918 35.27085555 19.88367743 50 33 C50.81210938 33.71542969 51.62421875 34.43085937 52.4609375 35.16796875 C67.71258743 49.4295993 76.65631515 69.41818573 79 90 C79.11043442 93.31407113 79.09527587 96.62209485 79.0625 99.9375 C79.05798828 100.81212891 79.05347656 101.68675781 79.04882812 102.58789062 C79.03714834 104.72529047 79.01921689 106.86265463 79 109 C59.39787281 107.17020858 41.49553207 95.02425916 28.9375 80.375 C19 68.32518116 19 68.32518116 19 63 C18.34 63 17.68 63 17 63 C7.53203222 43.98027712 0.49532405 21.34396373 0 0 Z " fill="#040404" transform="translate(86,517)"/>
<path d="M0 0 C4.00443082 3.49928473 6.24754448 7.57894973 8.75 12.1875 C9.18393066 12.97979004 9.61786133 13.77208008 10.06494141 14.58837891 C15.98434038 25.51900103 21.56748749 36.56654787 25.2109375 48.484375 C25.96074545 51.01715731 25.96074545 51.01715731 27.03515625 53.44140625 C28.13361889 56.35433349 28.60762159 59.11038137 29.0625 62.1875 C29.5998156 66.23026538 29.5998156 66.23026538 31 70 C32.45327981 86.8540367 31.17888016 104.88902018 23 120 C22.32212823 121.28864806 21.64513224 122.57775699 20.96875 123.8671875 C19.00468506 127.59221324 17.00896623 131.2990161 15 135 C12 135 12 135 10.52734375 133.8125 C-9.01714823 111.53081873 -16.50035351 87.29356572 -15.20263672 58.00488281 C-13.93506911 39.20822964 -9.30152804 16.45877859 0 0 Z " fill="#060505" transform="translate(286,697)"/>
<path d="M0 0 C0.66 0 1.32 0 2 0 C13.29960796 32.82971978 24.96791651 71.86816782 9.21289062 105.3125 C3.79193706 116.21636088 -2.60884152 127.10730102 -11 136 C-11.66 136 -12.32 136 -13 136 C-18.0383797 127.78184288 -22.46334301 119.67929225 -25.5 110.5 C-25.74250488 109.77184082 -25.98500977 109.04368164 -26.23486328 108.29345703 C-32.97913126 86.8246127 -29.5584893 60.39687868 -21 40 C-20.44699219 38.55367187 -20.44699219 38.55367187 -19.8828125 37.078125 C-14.94016244 24.46584553 -8.3692069 10.73391355 0 0 Z " fill="#040404" transform="translate(967,697)"/>
<path d="M0 0 C3.14730137 1.35330163 4.83627989 2.70406806 6.84765625 5.46484375 C7.36505371 6.1727002 7.88245117 6.88055664 8.41552734 7.60986328 C8.95902832 8.3779834 9.5025293 9.14610352 10.0625 9.9375 C10.63178223 10.73655762 11.20106445 11.53561523 11.78759766 12.35888672 C21.15085642 25.71748316 29.11465178 39.77486003 35 55 C35.433125 56.0415625 35.86625 57.083125 36.3125 58.15625 C43.6129502 78.63806862 39.63554479 103.07999588 31.24609375 122.58203125 C30.02934937 124.94304935 28.6617515 126.93364814 27 129 C13.63537919 123.34573735 4.50845961 106.80677402 -1 94 C-2.9988297 88.76368122 -4.58137925 83.42155063 -6 78 C-6.27928345 77.03139038 -6.27928345 77.03139038 -6.56420898 76.04321289 C-8.45300015 68.83993953 -8.3531594 61.58984986 -8.3125 54.1875 C-8.31067719 53.5022525 -8.30885437 52.817005 -8.30697632 52.11099243 C-8.22569058 33.92496399 -5.30558104 17.36371978 0 0 Z " fill="#040303" transform="translate(995,604)"/>
<path d="M0 0 C0.05615902 3.99353012 0.06359368 7.98426737 0.02099609 11.97802734 C0.00149139 13.8563757 -0.00562651 15.73484151 -0.01171875 17.61328125 C-0.93434929 47.74194073 -12.16284959 76.9091506 -33.3203125 98.3515625 C-40.68846692 105.19153381 -53.51205628 116 -64 116 C-69.51623174 91.32471337 -65.04791725 68.74111816 -51.85546875 47.48828125 C-42.5537894 33.24135406 -29.40165707 21.32493862 -16 11 C-14.76134409 10.00860173 -13.52448335 9.01495796 -12.2890625 8.01953125 C-11.00555545 6.99175387 -9.72170459 5.96440567 -8.4375 4.9375 C-7.8288208 4.44717285 -7.2201416 3.9568457 -6.59301758 3.45166016 C-2.22862907 0 -2.22862907 0 0 0 Z " fill="#040404" transform="translate(259,503)"/>
<path d="M0 0 C8.9677768 3.97907977 15.04694834 13.55868543 21 21 C21.6703125 21.79148437 22.340625 22.58296875 23.03125 23.3984375 C39.64505305 43.24270225 49.88024024 67.20088652 48.27197266 93.35693359 C47.28161195 102.98139052 45.7281199 114.97055334 40 123 C29.50191326 121.27900217 20.15598689 109.98854212 14 101.9375 C9.54127076 95.64688976 6.22169539 88.96938187 3 82 C2.5978125 81.21625 2.195625 80.4325 1.78125 79.625 C-6.7517784 61.52463673 -4.35618115 38.48402246 -4 19 C-3.34 19 -2.68 19 -2 19 C-2.02320312 18.29875 -2.04640625 17.5975 -2.0703125 16.875 C-2.18502478 10.84441138 -1.74356567 5.77556127 0 0 Z " fill="#050504" transform="translate(123,374)"/>
<path d="M0 0 C0.66 0 1.32 0 2 0 C10.40509202 26.90958315 16.86519029 63.19558707 5 90 C4.70528809 90.67756348 4.41057617 91.35512695 4.10693359 92.05322266 C-2.14050155 106.17573986 -11.27845639 122.11011243 -25 130 C-30.16515494 119.9536849 -33.2382474 109.90397143 -36 99 C-36.18030762 98.3603833 -36.36061523 97.7207666 -36.54638672 97.06176758 C-42.28292966 70.98797581 -30.04150733 44.29128232 -16.58154297 22.72753906 C-13.52715574 18.05047601 -10.30563972 13.50201601 -7 9 C-5.92105469 7.51886719 -5.92105469 7.51886719 -4.8203125 6.0078125 C-1.46112593 1.53354325 -1.46112593 1.53354325 0 0 Z " fill="#040303" transform="translate(257,604)"/>
<path d="M0 0 C7.02545676 22.3456755 8.34159979 55.34104888 -1 77 C-1.63421875 78.71509766 -1.63421875 78.71509766 -2.28125 80.46484375 C-5.25202549 88.4633195 -8.5604382 95.32672316 -14 102 C-14.65613281 102.81855469 -15.31226563 103.63710938 -15.98828125 104.48046875 C-20.17758884 109.4203287 -24.71519067 113.59903816 -29.8125 117.5625 C-30.36373535 117.99240234 -30.9149707 118.42230469 -31.48291016 118.86523438 C-34.23547069 120.93280656 -36.54742631 122.52349467 -40 123 C-49.06685045 104.72294968 -51.32425936 81.68968469 -44.82226562 62.22949219 C-39.82496529 48.67980493 -33.0752887 36.22073082 -24 25 C-23.56042969 24.4544043 -23.12085938 23.90880859 -22.66796875 23.34667969 C-19.53055198 19.48819955 -16.29319402 15.72591746 -13 12 C-12.49694336 11.42846191 -11.99388672 10.85692383 -11.47558594 10.26806641 C-9.97139247 8.56670292 -8.45718434 6.87503158 -6.9375 5.1875 C-6.472229 4.66526855 -6.00695801 4.14303711 -5.52758789 3.60498047 C-2.2343531 0 -2.2343531 0 0 0 Z " fill="#040404" transform="translate(1131,374)"/>
<path d="M0 0 C24.56625944 11.21878359 50.86993792 39.25607787 61 64 C62.16812424 67.29943863 63.15469298 70.6041134 64 74 C64.17063965 74.65637451 64.3412793 75.31274902 64.51708984 75.98901367 C65.85456415 81.4560142 66.31540396 86.56918291 66.25 92.1875 C66.24613281 93.00323486 66.24226563 93.81896973 66.23828125 94.65942383 C66.1364422 101.89211809 65.30090656 108.8798596 64 116 C53.24938828 114.43013248 44.00884628 106.8870398 36 100 C35.37609375 99.50886719 34.7521875 99.01773438 34.109375 98.51171875 C11.51740552 80.44831973 4.04731848 49.30847172 0.86914062 22.04541016 C0.07558341 14.66646173 -0.3984942 7.42379944 0 0 Z " fill="#040303" transform="translate(995,503)"/>
<path d="M0 0 C-11.90065397 33.90424059 -27.38984372 65.90912356 -61.13427734 82.32006836 C-71.24227164 87.077985 -81.66256473 91.24036965 -93 91 C-91.64641839 67.70906123 -82.69351237 47.69109382 -65.80078125 31.46484375 C-49.28939751 16.93390492 -29.54945134 8.25659806 -9 1 C-7.30810547 0.36578125 -7.30810547 0.36578125 -5.58203125 -0.28125 C-3 -1 -3 -1 0 0 Z " fill="#030303" transform="translate(287,407)"/>
<path d="M0 0 C31.02770136 9.42448332 64.39269063 22.96723333 81.2890625 52.625 C87.51720515 64.91065125 92.38308862 78.01726527 92 92 C85.41086954 92.35843649 80.21661256 91.19635528 74 89.0625 C72.6234021 88.59324097 72.6234021 88.59324097 71.21899414 88.11450195 C41.80091957 77.66923167 23.46972411 55.92558104 10.20166016 28.33056641 C1.55052776 9.91187323 1.55052776 9.91187323 0 0 Z " fill="#030303" transform="translate(968,406)"/>
<path d="M0 0 C15.37296306 14.30696472 24.15591188 45.67556956 25.375 66.15625 C26.1482179 87.86613604 20.42378551 110.09905973 6 127 C4 127 4 127 2.51953125 125.63671875 C-13.53961793 107.29915482 -20.40508667 86.72710448 -19.18017578 62.61962891 C-17.73306889 41.57971433 -11.44152489 17.90546795 0 0 Z " fill="#040404" transform="translate(195,250)"/>
<path d="M0 0 C0.66 0 1.32 0 2 0 C15.8476474 30.80800913 27.41005374 64.57061214 15.93359375 98.1171875 C11.77709903 108.89938172 5.50340961 119.08303244 -3 127 C-3.66 127 -4.32 127 -5 127 C-19.98085689 100.98748814 -28.85811585 77.54840942 -21 47.12890625 C-16.19670705 30.428037 -8.24115004 15.22056878 0 0 Z " fill="#040403" transform="translate(1058,250)"/>
<path d="M0 0 C0.66 0 1.32 0 2 0 C5.8734608 14.5048745 8.50871608 28.2385682 8.33618164 43.23901367 C8.3122454 45.46113581 8.31569892 47.68207523 8.32226562 49.90429688 C8.30225285 60.10875312 7.26975442 68.57095899 3 78 C2.56494141 79.36898437 2.56494141 79.36898437 2.12109375 80.765625 C-3.02261118 95.60530334 -15.09015534 114.05151733 -29 122 C-32 121 -32 121 -33.75390625 117.68359375 C-34.36794323 116.27304024 -34.97035211 114.8573815 -35.5625 113.4375 C-35.86607422 112.74591797 -36.16964844 112.05433594 -36.48242188 111.34179688 C-44.24646854 93.19185773 -42.5688203 73.18144541 -35.4921875 55.09375 C-28.04629997 36.84489521 -17.40888442 21.22546204 -5 6 C-4.23623047 5.03126953 -4.23623047 5.03126953 -3.45703125 4.04296875 C-2.35053856 2.65741925 -1.18232967 1.32142728 0 0 Z " fill="#060606" transform="translate(299,152)"/>
<path d="M0 0 C1.05638672 0.00451172 2.11277344 0.00902344 3.20117188 0.01367188 C5.78000908 0.02534082 8.35872294 0.04171115 10.9375 0.0625 C-3.46473063 27.03587081 -29.84828086 48.9243784 -58.75 58.375 C-73.39693795 62.51667056 -88.01984924 63.18957166 -103.0625 61.0625 C-101.41195569 49.85943053 -93.03914492 39.57829624 -86.0625 31.0625 C-85.28712891 30.11310547 -85.28712891 30.11310547 -84.49609375 29.14453125 C-75.72496787 19.50316311 -61.82173801 10.4556952 -49.125 7.375 C-45.80250137 6.76753564 -45.80250137 6.76753564 -43.0625 5.0625 C-41.60298079 4.77858589 -40.13284666 4.54865612 -38.66015625 4.34375 C-37.77005859 4.21613281 -36.87996094 4.08851563 -35.96289062 3.95703125 C-35.02638672 3.82683594 -34.08988281 3.69664062 -33.125 3.5625 C-31.2821095 3.30523402 -29.43963557 3.04496071 -27.59765625 2.78125 C-26.776604 2.66716797 -25.95555176 2.55308594 -25.10961914 2.43554688 C-23.00605203 2.15078316 -23.00605203 2.15078316 -21.0625 1.0625 C-14.01735266 0.04589448 -7.10874494 -0.05830516 0 0 Z " fill="#050404" transform="translate(330.0625,323.9375)"/>
<path d="M0 0 C16.27987016 6.39300837 30.37482142 37.2941411 36.94140625 52.3359375 C44.98722122 72.58407701 46.0001375 93.98550149 37.62109375 114.3515625 C36.47259133 116.93651097 35.27941772 119.47786916 34 122 C25.78825141 120.85417462 18.53632626 110.82045834 13.6875 104.5625 C0.08453894 86.50020248 -5.75088414 66.37080736 -5.41162109 43.99707031 C-5.3746217 41.47420479 -5.37060685 38.95279905 -5.37109375 36.4296875 C-5.36127504 34.79686247 -5.34962351 33.1640472 -5.3359375 31.53125 C-5.33259903 30.42166931 -5.33259903 30.42166931 -5.32919312 29.28967285 C-5.23830311 24.24258753 -4.34301269 19.86670045 -3 15 C-2.7919638 13.463369 -2.61582902 11.92131741 -2.5 10.375 C-2.14877856 6.69036776 -1.33538091 3.47199037 0 0 Z " fill="#040404" transform="translate(953,152)"/>
<path d="M0 0 C23.68968903 -1.25104654 49.52154872 1.11796551 71 12 C72.4540625 12.69029297 72.4540625 12.69029297 73.9375 13.39453125 C92.53561988 22.77108336 105.64654632 39.20472923 114 58 C114 58.99 114 59.98 114 61 C109.43259767 61.10056098 104.86587046 61.17224436 100.29760742 61.21972656 C98.75094347 61.23956584 97.20435161 61.2666464 95.65795898 61.30175781 C81.62115601 61.6119634 69.20468701 59.64608573 56.4375 53.375 C55.73189941 53.03291504 55.02629883 52.69083008 54.29931641 52.33837891 C36.69859019 43.51227795 21.84197036 29.58040261 10 14 C9.07948675 12.82055053 8.15753586 11.64222208 7.234375 10.46484375 C0 1.19247559 0 1.19247559 0 0 Z " fill="#040404" transform="translate(913,324)"/>
<path d="M0 0 C14.26108241 12.53975773 14.26108241 12.53975773 15.0234375 18.7265625 C2.93176329 24.1036727 -8.70336777 26.25964385 -21.9140625 26.1015625 C-23.14680908 26.09141113 -24.37955566 26.08125977 -25.6496582 26.07080078 C-34.16645895 25.9252723 -41.82981919 25.35261895 -49.9765625 22.7265625 C-50.62028809 22.53320312 -51.26401367 22.33984375 -51.92724609 22.140625 C-72.49475099 15.91997474 -89.33945681 4.01864165 -105.9765625 -9.2734375 C-103.67440539 -11.57559461 -102.54968573 -11.78981784 -99.42578125 -12.4921875 C-98.04749146 -12.80603394 -98.04749146 -12.80603394 -96.64135742 -13.1262207 C-95.6588501 -13.33980225 -94.67634277 -13.55338379 -93.6640625 -13.7734375 C-92.15066284 -14.10444458 -92.15066284 -14.10444458 -90.60668945 -14.44213867 C-87.73203627 -15.06274202 -84.85458329 -15.66869018 -81.9765625 -16.2734375 C-80.831875 -16.52738281 -79.6871875 -16.78132812 -78.5078125 -17.04296875 C-50.63910466 -22.36405445 -22.19342032 -18.05661149 0 0 Z " fill="#050504" transform="translate(948.9765625,270.2734375)"/>
<path d="M0 0 C0.99080566 0.00418945 1.98161133 0.00837891 3.00244141 0.01269531 C20.17641488 0.26833324 37.91264611 2.86671537 54.25 8.3125 C54.25 8.9725 54.25 9.6325 54.25 10.3125 C52.89575195 11.51416016 52.89575195 11.51416016 50.98828125 12.8515625 C50.28832031 13.3455957 49.58835937 13.83962891 48.8671875 14.34863281 C47.72636719 15.13512207 47.72636719 15.13512207 46.5625 15.9375 C45.78519531 16.47729492 45.00789063 17.01708984 44.20703125 17.57324219 C32.42191821 25.69973666 20.41310997 32.65458719 7.25 38.3125 C6.64494629 38.57337402 6.03989258 38.83424805 5.41650391 39.10302734 C-5.4747704 43.49545176 -16.38795544 44.84555926 -28.0625 44.75 C-29.33053467 44.74460205 -30.59856934 44.7392041 -31.9050293 44.73364258 C-41.42361728 44.57947814 -49.76979554 43.49607947 -58.75 40.3125 C-59.65105469 40.00441406 -60.55210937 39.69632812 -61.48046875 39.37890625 C-63.25583177 38.74026448 -65.00839646 38.03816814 -66.75 37.3125 C-61.89801784 23.13365058 -46.0686233 13.37630127 -33.26171875 6.96875 C-22.59898167 1.9398284 -11.76114209 -0.06945959 0 0 Z " fill="#040404" transform="translate(356.75,251.6875)"/>
<path d="M0 0 C1.1149585 -0.00430527 1.1149585 -0.00430527 2.25244141 -0.00869751 C3.8225989 -0.01073726 5.39278186 -0.0052135 6.96289062 0.00732422 C9.36646332 0.02338047 11.76835461 0.00747398 14.171875 -0.01171875 C15.69792038 -0.0097363 17.22396471 -0.00589259 18.75 0 C19.46881348 -0.00607269 20.18762695 -0.01214539 20.92822266 -0.0184021 C25.91645771 0.05191907 25.91645771 0.05191907 28.06411743 1.67489624 C30.39643226 4.74141107 29.79991051 8.63024237 29.7734375 12.3359375 C29.77630768 13.21241943 29.77917786 14.08890137 29.78213501 14.99194336 C29.78417598 16.84457038 29.77864378 18.69721892 29.76611328 20.54980469 C29.75005984 23.38785929 29.76596055 26.22448977 29.78515625 29.0625 C29.78317382 30.86198231 29.77933016 32.66146374 29.7734375 34.4609375 C29.78254654 35.73602173 29.78254654 35.73602173 29.7918396 37.03686523 C29.72121818 42.94349368 29.72121818 42.94349368 28.06411743 45.12098694 C25.28196194 47.22508345 22.10215829 46.84572148 18.75 46.83203125 C17.6350415 46.83989403 17.6350415 46.83989403 16.49755859 46.84791565 C14.92742155 46.85433358 13.35723642 46.85300174 11.78710938 46.84448242 C9.38324564 46.83596671 6.9817542 46.86474111 4.578125 46.89648438 C3.05208405 46.89809636 1.52603888 46.8975189 0 46.89453125 C-0.71881348 46.90576523 -1.43762695 46.91699921 -2.17822266 46.92857361 C-5.17515087 46.88666215 -7.15262662 46.75664708 -9.57666016 44.91845703 C-11.1453161 41.14769162 -11.05329626 37.62873555 -11.0234375 33.58203125 C-11.02630768 32.72916031 -11.02917786 31.87628937 -11.03213501 30.99757385 C-11.03417323 29.19800145 -11.02866028 27.39840677 -11.01611328 25.59887695 C-11.00003599 22.84210841 -11.0159799 20.08680154 -11.03515625 17.33007812 C-11.03317416 15.58072593 -11.0293312 13.83137464 -11.0234375 12.08203125 C-11.02951019 11.25698593 -11.03558289 10.43194061 -11.0418396 9.58189392 C-10.97125549 3.8519149 -10.97125549 3.8519149 -9.31411743 1.68162537 C-6.53281859 -0.43127031 -3.35392446 -0.02833468 0 0 Z " fill="#040404" transform="translate(617.625,973.6015625)"/>
<path d="M0 0 C0.33 0 0.66 0 1 0 C1 11.55 1 23.1 1 35 C0.34 33.68 -0.32 32.36 -1 31 C-1.33 30.67 -1.66 30.34 -2 30 C-2.08758003 28.00035018 -2.10696576 25.9976389 -2.09765625 23.99609375 C-2.09443359 22.78115234 -2.09121094 21.56621094 -2.08789062 20.31445312 C-2.07951172 19.03505859 -2.07113281 17.75566406 -2.0625 16.4375 C-2.05798828 15.15423828 -2.05347656 13.87097656 -2.04882812 12.54882812 C-2.03699545 9.36583978 -2.02051068 6.18294238 -2 3 C-1.34 3 -0.68 3 0 3 C0 2.01 0 1.02 0 0 Z " fill="#F1F2F2" transform="translate(606,980)"/>
<path d="M0 0 C1.8125 0.234375 1.8125 0.234375 4 0.75 C4.721875 0.90984375 5.44375 1.0696875 6.1875 1.234375 C6.785625 1.48703125 7.38375 1.7396875 8 2 C8.33 2.99 8.66 3.98 9 5 C8.34 6.32 7.68 7.64 7 9 C1.06 7.515 1.06 7.515 -5 6 C-3.68 5.34 -2.36 4.68 -1 4 C-1 3.01 -1 2.02 -1 1 C-0.67 0.67 -0.34 0.34 0 0 Z " fill="#E3E3E2" transform="translate(472,971)"/>
<path d="M0 0 C5.28 0 10.56 0 16 0 C16.33 1.32 16.66 2.64 17 4 C17.99 4.33 18.98 4.66 20 5 C19.16210938 4.85691406 18.32421875 4.71382812 17.4609375 4.56640625 C13.8545501 3.97619612 10.24327924 3.44952065 6.625 2.9375 C5.37976563 2.76089844 4.13453125 2.58429687 2.8515625 2.40234375 C1.91054688 2.26957031 0.96953125 2.13679687 0 2 C0 1.34 0 0.68 0 0 Z " fill="#CAC9CA" transform="translate(652,993)"/>
<path d="M0 0 C3.39417765 3.12621626 5.6062718 5.56541027 7 10 C6.01 10.66 5.02 11.32 4 12 C-0.90405117 7.8315565 -0.90405117 7.8315565 -1.375 3.75 C-1 1 -1 1 0 0 Z " fill="#E5E5E5" transform="translate(967,257)"/>
<path d="M0 0 C6.93 0.495 6.93 0.495 14 1 C14 1.33 14 1.66 14 2 C8.06 3.32 2.12 4.64 -4 6 C-3.67 4.68 -3.34 3.36 -3 2 C-2.01 2 -1.02 2 0 2 C0 1.34 0 0.68 0 0 Z " fill="#EEEEEE" transform="translate(584,993)"/>
<path d="M0 0 C0.66 0.33 1.32 0.66 2 1 C-0.19471406 5.51135667 -2.41173718 7.06273348 -7 9 C-7 9.99 -7 10.98 -7 12 C-7.99 12.33 -8.98 12.66 -10 13 C-10 9 -10 9 -7.8125 6.640625 C-6.884375 5.85171875 -5.95625 5.0628125 -5 4.25 C-4.071875 3.45078125 -3.14375 2.6515625 -2.1875 1.828125 C-1.465625 1.22484375 -0.74375 0.6215625 0 0 Z " fill="#1D1D1E" transform="translate(887,929)"/>
<path d="M0 0 C0 3.96 0 7.92 0 12 C-0.99 12 -1.98 12 -3 12 C-3 8.37 -3 4.74 -3 1 C-1 0 -1 0 0 0 Z " fill="#EDEEED" transform="translate(271,759)"/>
<path d="M0 0 C0.33 0.99 0.66 1.98 1 3 C0.29875 3.680625 -0.4025 4.36125 -1.125 5.0625 C-4.27934337 8.20780513 -7.13934304 11.5888386 -10 15 C-10.99 14.67 -11.98 14.34 -13 14 C-12.14535156 13.15695312 -11.29070313 12.31390625 -10.41015625 11.4453125 C-9.29413953 10.33867407 -8.17826128 9.23189598 -7.0625 8.125 C-6.49853516 7.56941406 -5.93457031 7.01382813 -5.35351562 6.44140625 C-2.30139972 3.5078429 -2.30139972 3.5078429 0 0 Z " fill="#DBDBDB" transform="translate(800,924)"/>
<path d="M0 0 C0.66 0 1.32 0 2 0 C2.33 1.98 2.66 3.96 3 6 C2.01 6.33 1.02 6.66 0 7 C-0.66 6.34 -1.32 5.68 -2 5 C-3.98 5.99 -3.98 5.99 -6 7 C-5.04882866 5.8274869 -4.08882991 4.66212985 -3.125 3.5 C-2.59132813 2.8503125 -2.05765625 2.200625 -1.5078125 1.53125 C-0.76144531 0.77328125 -0.76144531 0.77328125 0 0 Z " fill="#262627" transform="translate(1129,374)"/>
<path d="M0 0 C-0.66 4.29 -1.32 8.58 -2 13 C-2.89694794 9.41220825 -3.08304117 6.65381163 -3 3 C-4.65 3.66 -6.3 4.32 -8 5 C-8.33 4.34 -8.66 3.68 -9 3 C-3.375 0 -3.375 0 0 0 Z " fill="#555556" transform="translate(1169,517)"/>
<path d="M0 0 C0.99 0.33 1.98 0.66 3 1 C2.22914063 1.69867188 1.45828125 2.39734375 0.6640625 3.1171875 C-0.34898233 4.03643189 -1.36200185 4.95570418 -2.375 5.875 C-3.13683594 6.56529297 -3.13683594 6.56529297 -3.9140625 7.26953125 C-5.98091811 9.14601858 -8.02570548 11.02570548 -10 13 C-10 10 -10 10 -7.8125 7.51953125 C-6.884375 6.62621094 -5.95625 5.73289062 -5 4.8125 C-4.071875 3.91144531 -3.14375 3.01039063 -2.1875 2.08203125 C-1.1046875 1.05142578 -1.1046875 1.05142578 0 0 Z " fill="#E9E9E9" transform="translate(324,346)"/>
<path d="M0 0 C-0.54269531 0.18175781 -1.08539063 0.36351562 -1.64453125 0.55078125 C-2.71767578 0.92783203 -2.71767578 0.92783203 -3.8125 1.3125 C-4.87404297 1.67794922 -4.87404297 1.67794922 -5.95703125 2.05078125 C-8.14472373 3.06724258 -9.40896718 4.20820594 -11 6 C-11.99 5.01 -12.98 4.02 -14 3 C-12.42274653 2.29866401 -10.83788667 1.614417 -9.25 0.9375 C-7.92742187 0.36322266 -7.92742187 0.36322266 -6.578125 -0.22265625 C-3.84743691 -1.04600008 -2.63098653 -0.9773992 0 0 Z " fill="#3C3C3C" transform="translate(254,916)"/>
<path d="M0 0 C0.33 0.99 0.66 1.98 1 3 C-1.31 4.98 -3.62 6.96 -6 9 C-6 6 -6 6 -4.6875 4.39453125 C-4.130625 3.87246094 -3.57375 3.35039063 -3 2.8125 C-2.443125 2.28269531 -1.88625 1.75289062 -1.3125 1.20703125 C-0.6628125 0.60955078 -0.6628125 0.60955078 0 0 Z M-9 8 C-8.34 8.33 -7.68 8.66 -7 9 C-7.99 9 -8.98 9 -10 9 C-9.67 8.67 -9.34 8.34 -9 8 Z " fill="#161717" transform="translate(909,782)"/>
<path d="M0 0 C0.99 0.33 1.98 0.66 3 1 C1.8905928 4.48670834 0.73662334 7.77484237 -1 11 C-2.0257259 6.58937864 -2.03684712 4.07369424 0 0 Z " fill="#D5D4D5" transform="translate(303,225)"/>
<path d="M0 0 C1.140625 1.70703125 1.140625 1.70703125 2 4 C1.171875 6.32421875 1.171875 6.32421875 -0.25 8.6875 C-0.70890625 9.47511719 -1.1678125 10.26273438 -1.640625 11.07421875 C-3 13 -3 13 -5 14 C-3.46527032 9.27775484 -1.76054874 4.64144669 0 0 Z " fill="#CACACB" transform="translate(311,809)"/>
<path d="M0 0 C1.57035335 2.49409061 2.0274945 3.70443416 1.75 6.6875 C1.5025 7.450625 1.255 8.21375 1 9 C0.01 9.495 0.01 9.495 -1 10 C-1.66 10.99 -2.32 11.98 -3 13 C-2.45144652 8.428721 -1.58255197 4.32564205 0 0 Z " fill="#444444" transform="translate(944,742)"/>
<path d="M0 0 C1.32 0.66 2.64 1.32 4 2 C2.25 6.875 2.25 6.875 0 8 C-0.98120464 4.94736336 -0.98120464 3.05263664 0 0 Z " fill="#141415" transform="translate(995,604)"/>
<path d="M0 0 C3.875 1.75 3.875 1.75 5 4 C4.34 4 3.68 4 3 4 C3 4.66 3 5.32 3 6 C1.68 6.33 0.36 6.66 -1 7 C-0.67 4.69 -0.34 2.38 0 0 Z " fill="#141414" transform="translate(123,374)"/>
<path d="M0 0 C1.32 0.66 2.64 1.32 4 2 C2.25 5.875 2.25 5.875 0 7 C-0.66 7.99 -1.32 8.98 -2 10 C-1.46274105 6.62294375 -0.88935377 3.303314 0 0 Z " fill="#252526" transform="translate(953,152)"/>
<path d="M0 0 C2.9375 0.375 2.9375 0.375 6 1 C6.33 1.66 6.66 2.32 7 3 C5.02 3.66 3.04 4.32 1 5 C0.67 3.35 0.34 1.7 0 0 Z " fill="#1F1E1F" transform="translate(892,1005)"/>
<path d="M0 0 C0.66 0.33 1.32 0.66 2 1 C-0.31 4.3 -2.62 7.6 -5 11 C-5.99 10.67 -6.98 10.34 -8 10 C-5.36 6.7 -2.72 3.4 0 0 Z " fill="#202021" transform="translate(984,810)"/>
<path d="M0 0 C0.66 0.33 1.32 0.66 2 1 C2 1.66 2 2.32 2 3 C-0.375 4.6875 -0.375 4.6875 -3 6 C-5 5 -5 5 -6 3 C-4.03533587 1.93224776 -2.03144641 0.93446535 0 0 Z " fill="#303030" transform="translate(836,935)"/>
<path d="M0 0 C2 4 2 4 1.6875 6.125 C1 8 1 8 0 10 C-0.66 10 -1.32 10 -2 10 C-1.34 6.7 -0.68 3.4 0 0 Z " fill="#DBDBDB" transform="translate(981,785)"/>
<path d="M0 0 C0.99 0.66 1.98 1.32 3 2 C-0.625 7.875 -0.625 7.875 -4 9 C-2.80100302 5.9168649 -1.52299523 2.93720508 0 0 Z " fill="#232324" transform="translate(960,708)"/>
<path d="M0 0 C0.66 0 1.32 0 2 0 C2.99 3.3 3.98 6.6 5 10 C4.34 9.67 3.68 9.34 3 9 C3 8.01 3 7.02 3 6 C2.34 6 1.68 6 1 6 C1 5.34 1 4.68 1 4 C0.34 4 -0.32 4 -1 4 C-0.67 2.68 -0.34 1.36 0 0 Z " fill="#3A3A3B" transform="translate(967,697)"/>
<path d="M0 0 C-3.96 1.98 -3.96 1.98 -8 4 C-8.66 3.01 -9.32 2.02 -10 1 C-5.8922935 -0.58706842 -4.40767604 -1.10191901 0 0 Z " fill="#333333" transform="translate(853,259)"/>
<path d="M0 0 C0.66 0.99 1.32 1.98 2 3 C0.35 5.64 -1.3 8.28 -3 11 C-3.33 10.34 -3.66 9.68 -4 9 C-3.22265625 6.8359375 -3.22265625 6.8359375 -2.0625 4.375 C-1.68222656 3.55773437 -1.30195313 2.74046875 -0.91015625 1.8984375 C-0.60980469 1.27195312 -0.30945313 0.64546875 0 0 Z " fill="#D5D4D5" transform="translate(261,694)"/>
<path d="M0 0 C2.0625 0.4375 2.0625 0.4375 4 1 C2.3125 2.5625 2.3125 2.5625 0 4 C-2.75 3.6875 -2.75 3.6875 -5 3 C-4.360625 2.690625 -3.72125 2.38125 -3.0625 2.0625 C-1.06389179 1.1654837 -1.06389179 1.1654837 0 0 Z " fill="#DDDDDE" transform="translate(806,961)"/>
<path d="M0 0 C-0.33 0.99 -0.66 1.98 -1 3 C-4.73567172 3.76411467 -7.34811918 4.07174763 -11 3 C-9.73160474 2.49384702 -8.46016898 1.99530901 -7.1875 1.5 C-6.12595703 1.08234375 -6.12595703 1.08234375 -5.04296875 0.65625 C-3 0 -3 0 0 0 Z " fill="#3D3E3E" transform="translate(809,949)"/>
<path d="M0 0 C1.65 0.33 3.3 0.66 5 1 C3.68 2.32 2.36 3.64 1 5 C0.01 4.67 -0.98 4.34 -2 4 C-1.34 2.68 -0.68 1.36 0 0 Z " fill="#0F0F0F" transform="translate(1009,918)"/>
<path d="M0 0 C0.66 0 1.32 0 2 0 C1.45276317 3.37462715 0.9451 5.08235 -1 8 C-1.66 8 -2.32 8 -3 8 C-1.125 2.25 -1.125 2.25 0 0 Z " fill="#E5E4E6" transform="translate(992,261)"/>
<path d="M0 0 C0.99 0.495 0.99 0.495 2 1 C2.99716532 4.98866127 3.0502717 8.0323069 2 12 C1.67 12 1.34 12 1 12 C0.67 8.04 0.34 4.08 0 0 Z " fill="#383838" transform="translate(86,517)"/>
<path d="M0 0 C3.96 0 7.92 0 12 0 C11.34 1.32 10.68 2.64 10 4 C9.67 3.01 9.34 2.02 9 1 C6.03 1 3.06 1 0 1 C0 0.67 0 0.34 0 0 Z " fill="#434243" transform="translate(437,152)"/>
<path d="M0 0 C0.66 0.33 1.32 0.66 2 1 C2 1.99 2 2.98 2 4 C2.99 4.33 3.98 4.66 5 5 C-0.75 4.25 -0.75 4.25 -3 2 C-2.01 1.34 -1.02 0.68 0 0 Z " fill="#313132" transform="translate(358,1005)"/>
<path d="M0 0 C0 0.66 0 1.32 0 2 C-4.15267176 5.11450382 -4.15267176 5.11450382 -7.3125 4.6875 C-7.869375 4.460625 -8.42625 4.23375 -9 4 C-2.25 0 -2.25 0 0 0 Z " fill="#CDCDCE" transform="translate(994,933)"/>
<path d="M0 0 C0.99 0.33 1.98 0.66 3 1 C2.34 2.65 1.68 4.3 1 6 C0.01 6 -0.98 6 -2 6 C-1.34 4.02 -0.68 2.04 0 0 Z " fill="#DEDDDE" transform="translate(1155,569)"/>
<path d="M0 0 C0.99 1.32 1.98 2.64 3 4 C2.34 5.32 1.68 6.64 1 8 C-1 5 -1 5 -0.625 2.3125 C-0.41875 1.549375 -0.2125 0.78625 0 0 Z " fill="#2A292A" transform="translate(101,569)"/>
<path d="M0 0 C0.94875 0.04125 1.8975 0.0825 2.875 0.125 C2.875 1.115 2.875 2.105 2.875 3.125 C0.235 2.795 -2.405 2.465 -5.125 2.125 C-3.125 0.125 -3.125 0.125 0 0 Z " fill="#111111" transform="translate(942.125,291.875)"/>
</svg>
